<svg width="24" height="24" viewBox="0 0 24 24" fill="none" xmlns="http://www.w3.org/2000/svg">
<path fill-rule="evenodd" clip-rule="evenodd" d="M16.1875 9.6875V11.9297H12.75V5.567C14.7048 5.9204 16.1875 7.6308 16.1875 9.6875ZM12.75 13.4297H16.1875V18.4844H12.75V13.4297ZM11.25 18.4844V13.4297H7.8125V18.4844H11.25ZM6.3125 18.4844V9.6875C6.3125 6.5464 8.8589 4 12 4C15.1411 4 17.6875 6.5464 17.6875 9.6875V18.4844H19.25C19.4489 18.4844 19.6397 18.5634 19.7803 18.7041C19.921 18.8447 20 19.0355 20 19.2344C20 19.4333 19.921 19.6241 19.7803 19.7647C19.6397 19.9054 19.4489 19.9844 19.25 19.9844H17.6875V20H6.3125V19.9844H4.75C4.55109 19.9844 4.36032 19.9054 4.21967 19.7647C4.07902 19.6241 4 19.4333 4 19.2344C4 19.0355 4.07902 18.8447 4.21967 18.7041C4.36032 18.5634 4.55109 18.4844 4.75 18.4844H6.3125ZM11.25 5.567V11.9297H7.8125V9.6875C7.8125 7.6308 9.2952 5.9205 11.25 5.567Z" fill="#626262"/>
</svg>
